<svg version="1.2" xmlns="http://www.w3.org/2000/svg" viewBox="0 0 441 460" width="441" height="460">
	<title>book-cover</title>
	<style>
		.s0 { fill: #ffffff } 
	</style>
	<path fill-rule="evenodd" class="s0" d="m333.93 21.35c14.84 1.19 27.31 11.65 31.06 26.06l74.9 287.61c4.33 16.65-9.05 32.6-26.2 31.22l-254.16-20.43-90-345.75zm-277.37 3.16c-23.82 12.13-40.45 35.18-50.37 58.9q-1.08 2.58-2.06 5.16l-3.25-11.82c-5.93-22.21 19.25-63.38 49.69-75.28-0.01 0.01 5.99 23.04 5.99 23.04zm74.97 287.87c-23.26 10.78-40.47 29.18-51.06 48.41q-0.46 0.86-0.91 1.72l-64.87-235.6v-0.03c0.75-10.83 3.55-23.81 8.75-36.25 8.09-19.34 21.34-37.42 38-47.44 0 0 70.09 269.19 70.09 269.19zm11.1 42.63c-29.83 20.58-45.01 53.45-41.19 80.97l-1.69-0.16-11.62-42.16c1.41-7.42 4.23-15.72 8.72-23.87 8.4-15.26 21.83-29.9 39.47-38.97 0 0 6.31 24.19 6.31 24.19zm271.65 29.41c-10.93 4.61-18.92 10.69-24.47 17.53l13.69 13.06-46.63 7.32 22.47 9.03c-0.03 10.48 3.3 20.57 8.6 28.31l-267.06-22.07c-4.62-20.48 9.25-55.5 41.66-72.78-0.01 0 251.74 19.6 251.74 19.6zm-279.53-341.28c-0.9 0.15-1.74 0.43-2.46 0.82-2.94 1.54-4.86 3.94-2.28 9.84 32.58 48.13 69.95 94.02 108.04 139.56 1.98-2.04 4.32-3.9 7.02-5.4 1.2-0.72 2.52-1.32 3.9-1.86-36.89-46.01-73.13-92.27-105.76-139.47-2.16-2.5-4.62-3.52-6.9-3.59q-0.82-0.02-1.56 0.1zm189.32 14.57c6.69 9.43-1.14 14.12-3.66 20.22 11.67-12.06 19.17-5.59 25.44 0.84-8.61-12.39-3.26-20.19 1.35-28.28-7.62 7.22-12.9 12.37-23.13 7.22zm-89.8 42.9c6.84-2.58 12.72 0.96 17.7 10.26-2.28-10.32 2.04-16.08 10.62-19.02-8.58 2.64-15.12 0.48-19.56-6.16 1.62 10.72-4.92 11.14-8.76 14.92zm-95.15 63.01c17.16 2.1 12.36 15.77 15.36 24.77 2.16-25.49 17.28-27.23 31.02-27.71-22.32-3-23.52-17.04-25.92-30.54-2.04 15.96-3.3 27.24-20.46 33.48zm187.84 34.3c17.65 3.59 13.86 13.97 17.23 22.07 0.6-12.06 9.9-19.07 27.52-21.29-17.38-2.52-23.5-12.48-22.24-27.36-1.62 14.76-9.25 23.46-22.51 26.58zm-76.55-0.6c-2.1 1.2-3.96 2.82-5.34 4.43l9.12 10.8c2.16-2.22 4.74-4.2 7.38-5.88q1.35-0.82 2.7-1.56l-8.04-9.95c-2.04 0.36-4.02 1.14-5.82 2.16zm26.46 14.57c-2.64 0.42-6.3 1.86-9.54 3.9-3.3 2.1-6.24 4.8-8.04 7.32-1.74 2.58-2.22 4.62-1.86 6l0.12 0.72c2.82 32.75 24.3 57.41 40.61 92.86 4.08-4.37 8.88-8.63 14.28-12.65l-7.32-32.52 16.38 26.28c8.76-5.64 18.6-10.8 28.81-15.36l-13.09-22.02 21.83 18.3c8.85-3.54 17.88-6.72 26.74-9.36-34.14-20.15-76.23-40.97-104.36-62.57l-0.36-0.24-0.3-0.36c-0.12-0.12-0.42-0.3-1.02-0.42-0.3-0.06-0.72-0.06-1.2-0.06q-0.71 0-1.68 0.18zm-86.69 6.84c8.46 8.16 2.82 12.6 1.8 18.24 4.5-6.48 12.12-7.08 22.68-2.16-8.76-7.5-8.64-15.12-2.82-22.98-6 7.62-13.26 9.78-21.66 6.9zm-20.39 67.45c10.02 6.12 20.4 13.62 8.46 29.7 7.02-4.08 10.68-14.28 24.71-8.28-9.53-10.98-4.55-18.24 2.46-28.67-8.99 7.07-17.33 14.93-35.63 7.25z"/>
</svg>